<mxfile host="app.diagrams.net" agent="Mozilla/5.0 (Macintosh; Intel Mac OS X 10_15_7) AppleWebKit/537.36 (KHTML, like Gecko) Chrome/141.0.0.0 Safari/537.36" version="28.2.8">
  <diagram name="Page-1" id="Cg26QG1rRHjbkDpF5007">
    <mxGraphModel dx="2066" dy="1151" grid="1" gridSize="10" guides="1" tooltips="1" connect="1" arrows="1" fold="1" page="1" pageScale="1" pageWidth="850" pageHeight="1100" math="0" shadow="0">
      <root>
        <mxCell id="0" />
        <mxCell id="1" parent="0" />
        <mxCell id="Nbxbzdit7eM9LhjiLfYG-3" value="" style="rounded=0;whiteSpace=wrap;html=1;fillColor=#f5f5f5;fillStyle=solid;strokeColor=#666666;gradientColor=#b3b3b3;" vertex="1" parent="1">
          <mxGeometry width="850" height="1130" as="geometry" />
        </mxCell>
        <mxCell id="Nbxbzdit7eM9LhjiLfYG-4" value="" style="rounded=0;whiteSpace=wrap;html=1;fillColor=light-dark(#FFF2CC,#FFBD00);gradientColor=light-dark(#FFD966,#FFFFFF);strokeColor=#d6b656;" vertex="1" parent="1">
          <mxGeometry x="10" y="10" width="830" height="130" as="geometry" />
        </mxCell>
        <mxCell id="Nbxbzdit7eM9LhjiLfYG-12" value="" style="rounded=0;whiteSpace=wrap;html=1;fillColor=light-dark(#FFCC99,#8E1D00);strokeColor=#36393d;gradientColor=default;" vertex="1" parent="1">
          <mxGeometry x="290" y="150" width="550" height="130" as="geometry" />
        </mxCell>
        <mxCell id="Nbxbzdit7eM9LhjiLfYG-13" value="" style="rounded=0;whiteSpace=wrap;html=1;fillColor=light-dark(#FFCCCC,#833B0B);strokeColor=#36393d;gradientColor=default;" vertex="1" parent="1">
          <mxGeometry x="290" y="288" width="550" height="130" as="geometry" />
        </mxCell>
        <mxCell id="Nbxbzdit7eM9LhjiLfYG-14" value="" style="rounded=0;whiteSpace=wrap;html=1;fillColor=light-dark(#CCE5FF,#0104FF);strokeColor=#36393d;gradientColor=default;" vertex="1" parent="1">
          <mxGeometry x="290" y="428" width="550" height="130" as="geometry" />
        </mxCell>
        <mxCell id="Nbxbzdit7eM9LhjiLfYG-15" value="" style="rounded=0;whiteSpace=wrap;html=1;fillColor=light-dark(#FAD7AC,#860000);strokeColor=#b46504;gradientColor=default;" vertex="1" parent="1">
          <mxGeometry x="290" y="567" width="550" height="130" as="geometry" />
        </mxCell>
        <mxCell id="Nbxbzdit7eM9LhjiLfYG-16" value="" style="rounded=0;whiteSpace=wrap;html=1;gradientColor=default;fillColor=light-dark(#FFFFFF,#012B53);" vertex="1" parent="1">
          <mxGeometry x="290" y="707" width="550" height="130" as="geometry" />
        </mxCell>
        <mxCell id="Nbxbzdit7eM9LhjiLfYG-17" value="" style="rounded=0;whiteSpace=wrap;html=1;gradientColor=default;fillColor=light-dark(#FFFFFF,#360065);" vertex="1" parent="1">
          <mxGeometry x="290" y="845" width="550" height="130" as="geometry" />
        </mxCell>
        <mxCell id="Nbxbzdit7eM9LhjiLfYG-18" value="" style="rounded=0;whiteSpace=wrap;html=1;gradientColor=default;fillColor=light-dark(#FFFFFF,#7E004B);" vertex="1" parent="1">
          <mxGeometry x="290" y="985" width="550" height="130" as="geometry" />
        </mxCell>
        <mxCell id="Nbxbzdit7eM9LhjiLfYG-19" value="31SunRouter" style="image;html=1;image=img/lib/clip_art/computers/Server_128x128.png;labelBackgroundColor=none;fontColor=light-dark(#000000,#000000);" vertex="1" parent="1">
          <mxGeometry x="140" y="50" width="50" height="50" as="geometry" />
        </mxCell>
        <mxCell id="Nbxbzdit7eM9LhjiLfYG-20" value="32MercuryRouter" style="image;html=1;image=img/lib/clip_art/computers/Server_128x128.png;fontColor=light-dark(#000000,#000000);labelBackgroundColor=none;shadow=0;" vertex="1" parent="1">
          <mxGeometry x="409" y="185" width="50" height="60" as="geometry" />
        </mxCell>
        <mxCell id="Nbxbzdit7eM9LhjiLfYG-21" value="33VenusRouter" style="image;html=1;image=img/lib/clip_art/computers/Server_128x128.png;labelBackgroundColor=none;fontColor=light-dark(#000000,#000000);" vertex="1" parent="1">
          <mxGeometry x="409" y="312" width="50" height="60" as="geometry" />
        </mxCell>
        <mxCell id="Nbxbzdit7eM9LhjiLfYG-22" value="34EarthRouter" style="image;html=1;image=img/lib/clip_art/computers/Server_128x128.png;labelBackgroundColor=none;fontColor=light-dark(#000000,#000000);" vertex="1" parent="1">
          <mxGeometry x="409" y="463" width="50" height="60" as="geometry" />
        </mxCell>
        <mxCell id="Nbxbzdit7eM9LhjiLfYG-23" value="35MarsRouter" style="image;html=1;image=img/lib/clip_art/computers/Server_128x128.png;labelBackgroundColor=none;fontColor=light-dark(#000000,#000000);" vertex="1" parent="1">
          <mxGeometry x="409" y="599" width="50" height="66" as="geometry" />
        </mxCell>
        <mxCell id="Nbxbzdit7eM9LhjiLfYG-24" value="36JupiterRouter" style="image;html=1;image=img/lib/clip_art/computers/Server_128x128.png;labelBackgroundColor=none;fontColor=light-dark(#000000,#000000);" vertex="1" parent="1">
          <mxGeometry x="409" y="734" width="50" height="63" as="geometry" />
        </mxCell>
        <mxCell id="Nbxbzdit7eM9LhjiLfYG-25" value="37Saturn&lt;span style=&quot;&quot;&gt;Router&lt;/span&gt;" style="image;html=1;image=img/lib/clip_art/computers/Server_128x128.png;labelBackgroundColor=none;fontColor=light-dark(#000000,#000000);" vertex="1" parent="1">
          <mxGeometry x="409" y="880" width="50" height="65" as="geometry" />
        </mxCell>
        <mxCell id="Nbxbzdit7eM9LhjiLfYG-26" value="38Uranus&lt;span style=&quot;&quot;&gt;Router&lt;/span&gt;" style="image;html=1;image=img/lib/clip_art/computers/Server_128x128.png;labelBackgroundColor=none;fontColor=light-dark(#000000,#000000);" vertex="1" parent="1">
          <mxGeometry x="409" y="1010" width="50" height="66" as="geometry" />
        </mxCell>
        <mxCell id="Nbxbzdit7eM9LhjiLfYG-27" value="Sun - vlan31" style="text;html=1;whiteSpace=wrap;strokeColor=none;fillColor=none;align=left;verticalAlign=middle;rounded=0;fontColor=light-dark(#000000,#000000);" vertex="1" parent="1">
          <mxGeometry x="12" y="4" width="160" height="30" as="geometry" />
        </mxCell>
        <mxCell id="Nbxbzdit7eM9LhjiLfYG-28" value="Mercury - vlan32" style="text;html=1;whiteSpace=wrap;strokeColor=none;fillColor=none;align=left;verticalAlign=middle;rounded=0;" vertex="1" parent="1">
          <mxGeometry x="292" y="145" width="170" height="30" as="geometry" />
        </mxCell>
        <mxCell id="Nbxbzdit7eM9LhjiLfYG-29" value="Venus - vlan33" style="text;html=1;whiteSpace=wrap;strokeColor=none;fillColor=none;align=left;verticalAlign=middle;rounded=0;" vertex="1" parent="1">
          <mxGeometry x="293" y="282" width="170" height="30" as="geometry" />
        </mxCell>
        <mxCell id="Nbxbzdit7eM9LhjiLfYG-30" value="Earth - vlan34" style="text;html=1;whiteSpace=wrap;strokeColor=none;fillColor=none;align=left;verticalAlign=middle;rounded=0;" vertex="1" parent="1">
          <mxGeometry x="293" y="424" width="170" height="30" as="geometry" />
        </mxCell>
        <mxCell id="Nbxbzdit7eM9LhjiLfYG-31" value="Mars - vlan35" style="text;html=1;whiteSpace=wrap;strokeColor=none;fillColor=none;align=left;verticalAlign=middle;rounded=0;" vertex="1" parent="1">
          <mxGeometry x="293" y="564" width="170" height="30" as="geometry" />
        </mxCell>
        <mxCell id="Nbxbzdit7eM9LhjiLfYG-32" value="Jupiter - vlan36" style="text;html=1;whiteSpace=wrap;strokeColor=none;fillColor=none;align=left;verticalAlign=middle;rounded=0;" vertex="1" parent="1">
          <mxGeometry x="293" y="704" width="170" height="30" as="geometry" />
        </mxCell>
        <mxCell id="Nbxbzdit7eM9LhjiLfYG-33" value="Saturn - vlan37" style="text;html=1;whiteSpace=wrap;strokeColor=none;fillColor=none;align=left;verticalAlign=middle;rounded=0;" vertex="1" parent="1">
          <mxGeometry x="293" y="840" width="170" height="30" as="geometry" />
        </mxCell>
        <mxCell id="Nbxbzdit7eM9LhjiLfYG-34" value="Uranus - vlan38" style="text;html=1;whiteSpace=wrap;strokeColor=none;fillColor=none;align=left;verticalAlign=middle;rounded=0;" vertex="1" parent="1">
          <mxGeometry x="293" y="980" width="170" height="30" as="geometry" />
        </mxCell>
        <mxCell id="Nbxbzdit7eM9LhjiLfYG-36" value="&lt;font style=&quot;font-size: 14px;&quot;&gt;&lt;b&gt;31 Router&lt;/b&gt;&lt;/font&gt;&lt;div&gt;&lt;font style=&quot;font-size: 10px; color: light-dark(rgb(0, 0, 0), rgb(37, 177, 0));&quot;&gt;192.168.31.10&lt;/font&gt;&lt;/div&gt;" style="image;html=1;image=img/lib/clip_art/networking/Router_Icon_128x128.png;labelBackgroundColor=none;fontColor=light-dark(#000000,#000000);" vertex="1" parent="1">
          <mxGeometry x="30" y="28.5" width="60" height="65" as="geometry" />
        </mxCell>
        <mxCell id="Nbxbzdit7eM9LhjiLfYG-37" value="&lt;font style=&quot;font-size: 14px;&quot;&gt;&lt;b&gt;32 Router&lt;/b&gt;&lt;/font&gt;&lt;div&gt;&lt;font style=&quot;font-size: 10px; color: light-dark(rgb(0, 0, 0), rgb(37, 177, 0));&quot;&gt;192.168.32.10&lt;/font&gt;&lt;/div&gt;" style="image;html=1;image=img/lib/clip_art/networking/Router_Icon_128x128.png;labelBackgroundColor=none;fontColor=light-dark(#000000,#000000);" vertex="1" parent="1">
          <mxGeometry x="300" y="175" width="60" height="65" as="geometry" />
        </mxCell>
        <mxCell id="Nbxbzdit7eM9LhjiLfYG-39" value="&lt;div&gt;&lt;font style=&quot;font-size: 14px;&quot;&gt;&lt;b&gt;33 Router&lt;/b&gt;&lt;/font&gt;&lt;div&gt;&lt;font style=&quot;font-size: 10px; color: light-dark(rgb(0, 0, 0), rgb(37, 177, 0));&quot;&gt;192.168.33.10&lt;/font&gt;&lt;/div&gt;&lt;/div&gt;" style="image;html=1;image=img/lib/clip_art/networking/Router_Icon_128x128.png;labelBackgroundColor=none;fontColor=light-dark(#000000,#000000);" vertex="1" parent="1">
          <mxGeometry x="300" y="310" width="60" height="65" as="geometry" />
        </mxCell>
        <mxCell id="Nbxbzdit7eM9LhjiLfYG-40" value="&lt;font style=&quot;font-size: 14px;&quot;&gt;&lt;b&gt;34 Router&lt;/b&gt;&lt;/font&gt;&lt;div&gt;&lt;font style=&quot;font-size: 10px; color: light-dark(rgb(0, 0, 0), rgb(37, 177, 0));&quot;&gt;192.168.34.10&lt;/font&gt;&lt;/div&gt;" style="image;html=1;image=img/lib/clip_art/networking/Router_Icon_128x128.png;labelBackgroundColor=none;fontColor=light-dark(#000000,#000000);" vertex="1" parent="1">
          <mxGeometry x="300" y="449" width="60" height="65" as="geometry" />
        </mxCell>
        <mxCell id="Nbxbzdit7eM9LhjiLfYG-41" value="&lt;font style=&quot;font-size: 14px;&quot;&gt;&lt;b&gt;35 Router&lt;/b&gt;&lt;/font&gt;&lt;div&gt;&lt;font style=&quot;font-size: 10px; color: light-dark(rgb(0, 0, 0), rgb(37, 177, 0));&quot;&gt;192.168.35.10&lt;/font&gt;&lt;/div&gt;" style="image;html=1;image=img/lib/clip_art/networking/Router_Icon_128x128.png;labelBackgroundColor=none;fontColor=light-dark(#000000,#000000);" vertex="1" parent="1">
          <mxGeometry x="300" y="590" width="60" height="65" as="geometry" />
        </mxCell>
        <mxCell id="Nbxbzdit7eM9LhjiLfYG-42" value="&lt;font style=&quot;font-size: 14px;&quot;&gt;&lt;b&gt;36 Router&lt;/b&gt;&lt;/font&gt;&lt;div&gt;&lt;font style=&quot;font-size: 10px; color: light-dark(rgb(0, 0, 0), rgb(37, 177, 0));&quot;&gt;192.168.36.10&lt;/font&gt;&lt;/div&gt;" style="image;html=1;image=img/lib/clip_art/networking/Router_Icon_128x128.png;labelBackgroundColor=none;fontColor=light-dark(#000000,#000000);" vertex="1" parent="1">
          <mxGeometry x="300" y="727" width="60" height="65" as="geometry" />
        </mxCell>
        <mxCell id="Nbxbzdit7eM9LhjiLfYG-43" value="&lt;font style=&quot;font-size: 14px;&quot;&gt;&lt;b&gt;37 Router&lt;/b&gt;&lt;/font&gt;&lt;div&gt;&lt;font style=&quot;font-size: 10px; color: light-dark(rgb(0, 0, 0), rgb(37, 177, 0));&quot;&gt;192.168.37.10&lt;/font&gt;&lt;/div&gt;" style="image;html=1;image=img/lib/clip_art/networking/Router_Icon_128x128.png;labelBackgroundColor=none;fontColor=light-dark(#000000,#000000);" vertex="1" parent="1">
          <mxGeometry x="300" y="860" width="60" height="65" as="geometry" />
        </mxCell>
        <mxCell id="Nbxbzdit7eM9LhjiLfYG-44" value="&lt;font style=&quot;font-size: 14px;&quot;&gt;&lt;b&gt;38 Router&lt;/b&gt;&lt;/font&gt;&lt;div&gt;&lt;font style=&quot;font-size: 10px; color: light-dark(rgb(0, 0, 0), rgb(37, 177, 0));&quot;&gt;192.168.38.10&lt;/font&gt;&lt;/div&gt;" style="image;html=1;image=img/lib/clip_art/networking/Router_Icon_128x128.png;labelBackgroundColor=none;fontColor=light-dark(#000000,#000000);" vertex="1" parent="1">
          <mxGeometry x="300" y="1007" width="60" height="65" as="geometry" />
        </mxCell>
      </root>
    </mxGraphModel>
  </diagram>
</mxfile>
